<?xml version="1.0" encoding="UTF-8"?>
<svg id="Warstwa_2" data-name="Warstwa 2" xmlns="http://www.w3.org/2000/svg" viewBox="0 0 1490.51 506.92">
  <defs>
    <style>
      .cls-1 {
        fill: #FFFFFF;
      }
    </style>
  </defs>
  <g id="Warstwa_1-2" data-name="Warstwa 1">
    <polygon class="cls-1" points="317.85 83.46 331.47 438.91 1131.69 500.69 262.65 506.92 241.61 .24 287.07 0 1153.73 174.67 317.85 83.46"/>
    <polygon class="cls-1" points="217.4 1.32 238.22 506.92 23.53 504.72 180.85 451.64 166.59 95.62 0 178.98 185.85 1.62 217.4 1.32"/>
    <g>
      <path class="cls-1" d="M507.8,165.78l1.6,45.82-34.64-3.92,6.42,183.12-58.33-6.6-6.42-183.12-34.5-3.91-1.61-45.82,127.46,14.43Z"/>
      <path class="cls-1" d="M526.01,165.29l41.29,4.67c27.52,3.12,46.19,6.31,56.02,9.58,9.82,3.27,17.96,9.71,24.41,19.31,6.45,9.6,10.02,24.16,10.71,43.68.62,17.82-1.13,29.54-5.25,35.18-4.13,5.64-12.54,8.35-25.24,8.13,11.65,4.23,19.54,9.02,23.69,14.37,4.14,5.35,6.77,10.13,7.89,14.34,1.11,4.21,1.99,15.56,2.64,34.03l2.12,60.38-54.17-6.13-2.67-76.08c-.43-12.25-1.64-19.95-3.64-23.09-2-3.14-7.01-5.16-15.05-6.07l3.62,103.23-58.33-6.6-8.02-228.94ZM585.71,211.06l1.78,50.91c6.56.74,11.12.34,13.69-1.2,2.57-1.54,3.68-7.35,3.32-17.44l-.44-12.58c-.25-7.26-1.69-12.16-4.31-14.71-2.62-2.55-7.3-4.21-14.04-4.97Z"/>
      <path class="cls-1" d="M784.56,191.89l41.38,232.72-59.61-6.75-4.57-41.5-20.86-2.36-2.06,40.75-60.3-6.83,21.73-225.57,84.3,9.55ZM758.81,335.6c-3.86-26.27-7.95-58.65-12.25-97.16-4.41,43.17-7.02,74.8-7.82,94.89l20.08,2.27Z"/>
      <path class="cls-1" d="M891.09,201.9l8.02,228.94-58.33-6.6-8.02-228.94,58.33,6.6Z"/>
      <path class="cls-1" d="M977.79,209.98l6.42,183.12,35.47,4.02,1.61,45.82-93.79-10.62-8.02-228.94,58.33,6.6Z"/>
      <path class="cls-1" d="M1032.31,213.77l58.19,6.59c18.38,2.08,32.35,5.12,41.92,9.11,9.57,3.99,17.42,10.77,23.55,20.33,6.13,9.56,9.54,24.23,10.24,44.02.47,13.38-1.26,22.47-5.18,27.28-3.93,4.81-11.89,7.94-23.89,9.4,13.59,4.64,22.92,10.84,27.97,18.6,5.05,7.76,7.84,19.09,8.37,34l.74,21.22c.54,15.47-.79,26.73-3.99,33.79-3.2,7.06-8.54,11.53-16.02,13.41-7.48,1.88-22.95,1.49-46.41-1.17l-67.47-7.64-8.02-228.94ZM1092.01,259.54l1.78,50.91c2.49.19,4.43.36,5.81.52,5.73.65,9.32-.38,10.79-3.07,1.47-2.7,1.97-10.83,1.49-24.41-.25-7.16-1.07-12.26-2.47-15.28-1.4-3.02-3.14-5.03-5.25-6.02-2.1-.99-6.16-1.87-12.17-2.65ZM1095.05,346.08l2.25,64.06c8.21.65,13.4-.08,15.59-2.18,2.18-2.1,3.11-7.77,2.79-17.01l-.75-21.35c-.34-9.8-1.57-15.86-3.67-18.16-2.11-2.3-7.5-4.09-16.2-5.36Z"/>
      <path class="cls-1" d="M1331.89,378.41c.81,23,.84,39.23.12,48.68-.73,9.45-3.75,17.82-9.05,25.1-5.31,7.29-12.65,12.51-22.01,15.68-9.37,3.16-20.38,4.03-33.03,2.6-12.01-1.36-22.86-4.58-32.56-9.67-9.7-5.09-17.6-11.97-23.7-20.64-6.1-8.67-9.87-17.78-11.31-27.34-1.44-9.55-2.57-26.11-3.4-49.68l-1.37-39.17c-.81-23-.85-39.23-.12-48.68.73-9.45,3.74-17.82,9.06-25.1,5.31-7.29,12.65-12.51,22.01-15.68,9.36-3.17,20.37-4.03,33.03-2.6,12,1.36,22.86,4.58,32.56,9.67,9.7,5.09,17.6,11.97,23.7,20.64,6.1,8.67,9.87,17.79,11.31,27.34,1.44,9.55,2.57,26.11,3.4,49.68l1.37,39.17ZM1270.92,296.58c-.37-10.65-1.19-17.53-2.45-20.63-1.26-3.1-3.69-4.85-7.29-5.26-3.05-.34-5.34.59-6.87,2.81-1.53,2.22-2.09,9.22-1.68,21.01l3.75,106.9c.47,13.29,1.28,21.55,2.46,24.79,1.17,3.23,3.7,5.07,7.58,5.51,3.97.45,6.45-1.05,7.43-4.51.98-3.46,1.24-11.92.77-25.41l-3.69-105.21Z"/>
      <path class="cls-1" d="M1472.1,258.14l-16.96,98.93,35.37,131.19-54.03-6.12c-7.26-23.56-14.14-52.04-20.66-85.44-.96,14.36-2.47,29.5-4.54,45.41l-4.18,36.71-56.8-6.43,16.72-125.29-24.75-103.65,56.39,6.38c1.25,6.42,3.64,17.16,7.18,32.21,2.84,11.49,5.19,22.04,7.06,31.66l10.28-61.09,48.91,5.54Z"/>
    </g>
  </g>
</svg>