<svg width="50" height="42" viewBox="0 0 50 42" fill="none" xmlns="http://www.w3.org/2000/svg">
<mask id="path-1-inside-1_685_335" fill="white">
<path d="M11.6432 41.5757H4.36757C3.16577 41.5757 2.13784 41.1478 1.28378 40.2919C0.429729 39.4361 0.0018018 38.4099 0 37.2135V15.3838C0 14.6919 0.154955 14.037 0.464865 13.419C0.774775 12.8009 1.2018 12.2919 1.74595 11.8919L16.3 0.870303C16.7018 0.580213 17.1216 0.362195 17.5595 0.216249C17.9973 0.070303 18.4541 -0.00176884 18.9297 3.29599e-05C19.4054 0.00183476 19.8595 0.0739066 20.2919 0.216249C20.7243 0.358591 21.1396 0.57661 21.5378 0.870303L28.0676 5.80814C28.4477 6.10003 28.6162 6.47301 28.573 6.92706C28.5297 7.38111 28.3018 7.73247 27.8892 7.98111C26.5487 8.85499 25.4018 9.95048 24.4486 11.2676C23.4955 12.5865 22.8099 14.0496 22.3919 15.6568C21.9721 17.2658 21.8514 18.8748 22.0297 20.4838C22.2081 22.0928 22.6802 23.6153 23.4459 25.0514C23.6712 25.4982 23.7045 25.9523 23.5459 26.4135C23.3892 26.8766 23.1 27.2 22.6784 27.3838C20.682 28.2397 19.1018 29.0991 17.9378 29.9622C16.7739 30.8253 15.8577 31.8415 15.1892 33.0108C14.7297 33.7856 14.3874 34.5955 14.1622 35.4406C13.9369 36.2856 13.8243 37.1388 13.8243 38V39.3919C13.8243 40.0117 13.6144 40.5307 13.1946 40.9487C12.7748 41.3667 12.2577 41.5757 11.6432 41.5757ZM35.1405 31.2838C37.4649 31.2838 39.7126 31.582 41.8838 32.1784C44.055 32.773 46.1072 33.6451 48.0405 34.7946C48.6441 35.1856 49.1216 35.6595 49.473 36.2163C49.8243 36.773 50 37.3676 50 38V38.9352C50 39.6775 49.745 40.3027 49.2351 40.8108C48.7252 41.319 48.1 41.5739 47.3595 41.5757H22.9108C22.1973 41.5757 21.5784 41.3144 21.0541 40.7919C20.5315 40.2694 20.2703 39.6505 20.2703 38.9352V38C20.2703 37.3676 20.4459 36.773 20.7973 36.2163C21.1486 35.6595 21.6261 35.1847 22.2297 34.7919C24.1631 33.646 26.2171 32.7748 28.3919 32.1784C30.5667 31.582 32.8162 31.2847 35.1405 31.2865M35.1405 25.6189C33.2667 25.6189 31.6712 24.9631 30.3541 23.6514C29.0369 22.3397 28.3784 20.7451 28.3784 18.8676C28.3784 16.9901 29.0351 15.3946 30.3486 14.0811C31.6622 12.7676 33.2559 12.1099 35.1297 12.1081C37.0036 12.1063 38.5991 12.7622 39.9162 14.0757C41.2333 15.3892 41.8919 16.9829 41.8919 18.8568C41.8919 20.7307 41.236 22.3271 39.9243 23.646C38.6126 24.9649 37.018 25.6226 35.1405 25.6189Z"/>
</mask>
<path d="M0 37.2135H-2.5L-2.5 37.2173L0 37.2135ZM1.74595 11.8919L3.22667 13.9062L3.24102 13.8957L3.25523 13.8849L1.74595 11.8919ZM16.3 0.870303L14.8366 -1.15663L14.8135 -1.13993L14.7907 -1.1227L16.3 0.870303ZM21.5378 0.870303L23.0457 -1.12374L23.0338 -1.13277L23.0218 -1.14165L21.5378 0.870303ZM28.0676 5.80814L29.59 3.82518L29.5828 3.81961L29.5755 3.8141L28.0676 5.80814ZM27.8892 7.98111L26.5988 5.83986L26.561 5.86267L26.524 5.88681L27.8892 7.98111ZM24.4486 11.2676L22.4233 9.80195L22.4224 9.80327L24.4486 11.2676ZM22.3919 15.6568L24.8109 16.288L24.8114 16.2861L22.3919 15.6568ZM23.4459 25.0514L25.6784 23.9262L25.6654 23.9005L25.6519 23.8751L23.4459 25.0514ZM23.5459 26.4135L21.1817 25.6008L21.1779 25.6119L23.5459 26.4135ZM22.6784 27.3838L23.6634 29.6816L23.6704 29.6786L23.6773 29.6756L22.6784 27.3838ZM15.1892 33.0108L17.3395 34.286L17.3497 34.2689L17.3596 34.2515L15.1892 33.0108ZM41.8838 32.1784L41.2216 34.5891L41.2234 34.5896L41.8838 32.1784ZM48.0405 34.7946L49.3997 32.6964L49.3595 32.6703L49.3182 32.6458L48.0405 34.7946ZM47.3595 41.5757V44.0757L47.3655 44.0757L47.3595 41.5757ZM21.0541 40.7919L19.2863 42.5597L19.2893 42.5627L21.0541 40.7919ZM22.2297 34.7919L20.955 32.6413L20.91 32.668L20.8662 32.6965L22.2297 34.7919ZM28.3919 32.1784L29.0531 34.5894L28.3919 32.1784ZM35.1405 25.6189L35.1453 23.1189H35.1405V25.6189ZM11.6432 39.0757H4.36757V44.0757H11.6432V39.0757ZM4.36757 39.0757C3.83424 39.0757 3.44168 38.9151 3.05341 38.526L-0.485845 42.0578C0.833998 43.3805 2.49729 44.0757 4.36757 44.0757V39.0757ZM3.05341 38.526C2.66058 38.1324 2.50079 37.7375 2.5 37.2098L-2.5 37.2173C-2.49719 39.0824 -1.80112 40.7398 -0.485845 42.0578L3.05341 38.526ZM2.5 37.2135V15.3838H-2.5V37.2135H2.5ZM2.5 15.3838C2.5 15.0807 2.56427 14.8095 2.69963 14.5396L-1.7699 12.2983C-2.25436 13.2644 -2.5 14.3031 -2.5 15.3838H2.5ZM2.69963 14.5396C2.83673 14.2662 3.00872 14.0665 3.22667 13.9062L0.265224 9.87761C-0.605119 10.5174 -1.28718 11.3357 -1.7699 12.2983L2.69963 14.5396ZM3.25523 13.8849L17.8093 2.86331L14.7907 -1.1227L0.236665 9.89892L3.25523 13.8849ZM17.7634 2.89724C17.9748 2.74458 18.1698 2.64805 18.35 2.58796L16.7689 -2.15546C16.0735 -1.92366 15.4288 -1.58415 14.8366 -1.15663L17.7634 2.89724ZM18.35 2.58796C18.522 2.53062 18.708 2.49921 18.9203 2.50002L18.9392 -2.49995C18.2001 -2.50275 17.4725 -2.39001 16.7689 -2.15546L18.35 2.58796ZM18.9203 2.50002C19.1454 2.50087 19.338 2.53423 19.5102 2.59091L21.0736 -2.15841C20.3809 -2.38642 19.6654 -2.4972 18.9392 -2.49995L18.9203 2.50002ZM19.5102 2.59091C19.6699 2.64347 19.8506 2.73231 20.0539 2.88226L23.0218 -1.14165C22.4287 -1.57909 21.7787 -1.92628 21.0736 -2.15841L19.5102 2.59091ZM20.0299 2.86435L26.5597 7.80218L29.5755 3.8141L23.0457 -1.12374L20.0299 2.86435ZM26.5451 7.7911C26.4646 7.72925 26.3129 7.58429 26.2007 7.3359C26.0859 7.08187 26.0694 6.84546 26.0842 6.69004L31.0617 7.16408C31.1915 5.80162 30.6111 4.6091 29.59 3.82518L26.5451 7.7911ZM26.0842 6.69004C26.0973 6.55295 26.1481 6.36186 26.2723 6.17054C26.3935 5.98357 26.5293 5.88179 26.5988 5.83986L29.1796 10.1224C30.2262 9.49164 30.9385 8.45738 31.0617 7.16408L26.0842 6.69004ZM26.524 5.88681C24.9226 6.93073 23.5532 8.24066 22.4233 9.80195L26.474 12.7332C27.2504 11.6603 28.1747 10.7793 29.2544 10.0754L26.524 5.88681ZM22.4224 9.80327C21.2837 11.3789 20.4669 13.1262 19.9724 15.0275L24.8114 16.2861C25.1529 14.9729 25.7073 13.7941 26.4749 12.7319L22.4224 9.80327ZM19.9729 15.0256C19.4781 16.9221 19.332 18.8383 19.545 20.7593L24.5145 20.2083C24.3707 18.9113 24.4661 17.6095 24.8109 16.288L19.9729 15.0256ZM19.545 20.7593C19.7585 22.6853 20.3258 24.5133 21.24 26.2277L25.6519 23.8751C25.0346 22.7174 24.6577 21.5004 24.5145 20.2083L19.545 20.7593ZM21.2135 26.1766C21.1927 26.1354 21.1563 26.0424 21.1466 25.9101C21.1368 25.7764 21.159 25.6669 21.1817 25.6008L25.9102 27.2262C26.2941 26.1093 26.1981 24.9573 25.6784 23.9262L21.2135 26.1766ZM21.1779 25.6119C21.194 25.5646 21.2409 25.4566 21.3478 25.337C21.4574 25.2145 21.5806 25.1352 21.6794 25.0921L23.6773 29.6756C24.7893 29.1908 25.5473 28.2984 25.9139 27.2152L21.1779 25.6119ZM21.6933 25.0861C19.5975 25.9845 17.8256 26.9331 16.4488 27.954L19.4269 31.9704C20.378 31.2651 21.7664 30.4948 23.6634 29.6816L21.6933 25.0861ZM16.4488 27.954C15.0284 29.0072 13.8716 30.2783 13.0188 31.7701L17.3596 34.2515C17.8438 33.4046 18.5193 32.6433 19.4269 31.9704L16.4488 27.954ZM13.0389 31.7357C12.4659 32.7018 12.0325 33.7235 11.7465 34.7967L16.5778 36.0844C16.7422 35.4676 16.9935 34.8695 17.3395 34.286L13.0389 31.7357ZM11.7465 34.7967C11.4662 35.8485 11.3243 36.918 11.3243 38H16.3243C16.3243 37.3595 16.4077 36.7227 16.5778 36.0844L11.7465 34.7967ZM11.3243 38V39.3919H16.3243V38H11.3243ZM11.3243 39.3919C11.3243 39.415 11.3215 39.3773 11.3493 39.3085C11.3623 39.2765 11.3783 39.2469 11.3952 39.2217C11.412 39.1968 11.4256 39.1821 11.4306 39.1771L14.9586 42.7202C15.8733 41.8095 16.3243 40.6424 16.3243 39.3919H11.3243ZM11.4306 39.1771C11.4423 39.1655 11.4853 39.1293 11.5551 39.1011C11.6231 39.0736 11.6621 39.0757 11.6432 39.0757V44.0757C12.8915 44.0757 14.0512 43.6237 14.9586 42.7202L11.4306 39.1771ZM35.1405 33.7838C37.2484 33.7838 39.2731 34.0539 41.2216 34.5891L42.546 29.7677C40.1522 29.1102 37.6813 28.7838 35.1405 28.7838V33.7838ZM41.2234 34.5896C43.1782 35.1249 45.0227 35.9088 46.7629 36.9435L49.3182 32.6458C47.1917 31.3813 44.9317 30.4211 42.5441 29.7672L41.2234 34.5896ZM46.6814 36.8929C47.0093 37.1053 47.2181 37.3275 47.3588 37.5505L51.5872 34.882C51.0252 33.9915 50.2789 33.2659 49.3997 32.6964L46.6814 36.8929ZM47.3588 37.5505C47.4689 37.7251 47.5 37.8598 47.5 38H52.5C52.5 36.8754 52.1797 35.821 51.5872 34.882L47.3588 37.5505ZM47.5 38V38.9352H52.5V38H47.5ZM47.5 38.9352C47.5 38.9773 47.4964 39.0017 47.4945 39.0118C47.4927 39.0214 47.4918 39.0219 47.4939 39.0169C47.496 39.0117 47.498 39.0086 47.4975 39.0093C47.4968 39.0103 47.4897 39.0208 47.4705 39.0399L50.9998 42.5817C51.9966 41.5884 52.5 40.3189 52.5 38.9352H47.5ZM47.4705 39.0399C47.4504 39.06 47.4387 39.0681 47.4364 39.0697C47.4343 39.0711 47.436 39.0698 47.4398 39.0682C47.4435 39.0667 47.4418 39.068 47.4313 39.0699C47.4204 39.072 47.3955 39.0756 47.3534 39.0757L47.3655 44.0757C48.7443 44.0723 50.008 43.57 50.9998 42.5817L47.4705 39.0399ZM47.3595 39.0757H22.9108V44.0757H47.3595V39.0757ZM22.9108 39.0757C22.8857 39.0757 22.8747 39.0735 22.8745 39.0734C22.874 39.0734 22.8751 39.0735 22.8772 39.0742C22.8794 39.0749 22.8817 39.0757 22.8837 39.0766C22.8887 39.0787 22.8873 39.0788 22.8787 39.0729C22.8696 39.0667 22.8492 39.0514 22.8188 39.0211L19.2893 42.5627C20.2627 43.5327 21.5086 44.0757 22.9108 44.0757V39.0757ZM22.8218 39.0242C22.7923 38.9946 22.7777 38.9751 22.7721 38.9668C22.7667 38.959 22.7671 38.9582 22.7694 38.9636C22.7717 38.9691 22.7727 38.9733 22.7727 38.9732C22.7726 38.9727 22.7703 38.9611 22.7703 38.9352H17.7703C17.7703 40.3376 18.3122 41.5856 19.2863 42.5597L22.8218 39.0242ZM22.7703 38.9352V38H17.7703V38.9352H22.7703ZM22.7703 38C22.7703 37.8598 22.8013 37.7251 22.9115 37.5505L18.6831 34.882C18.0906 35.821 17.7703 36.8754 17.7703 38H22.7703ZM22.9115 37.5505C23.053 37.3263 23.2632 37.1021 23.5933 36.8873L20.8662 32.6965C19.9891 33.2673 19.2443 33.9927 18.6831 34.882L22.9115 37.5505ZM23.5045 36.9425C25.2452 35.9108 27.0928 35.127 29.0531 34.5894L27.7307 29.7674C25.3415 30.4226 23.081 31.3812 20.955 32.6413L23.5045 36.9425ZM29.0531 34.5894C31.0052 34.0541 33.0314 33.7849 35.1386 33.7865L35.1425 28.7865C32.6011 28.7846 30.1281 29.11 27.7307 29.7674L29.0531 34.5894ZM35.1405 23.1189C33.9219 23.1189 32.9625 22.7209 32.1182 21.88L28.5899 25.4228C30.3798 27.2053 32.6114 28.1189 35.1405 28.1189V23.1189ZM32.1182 21.88C31.2774 21.0427 30.8784 20.0877 30.8784 18.8676H25.8784C25.8784 21.4024 26.7965 23.6367 28.5899 25.4228L32.1182 21.88ZM30.8784 18.8676C30.8784 17.6452 31.2774 16.6879 32.1164 15.8489L28.5809 12.3133C26.7929 14.1013 25.8784 16.3351 25.8784 18.8676H30.8784ZM32.1164 15.8489C32.9571 15.0082 33.9139 14.6093 35.1321 14.6081L35.1273 9.60814C32.5978 9.61058 30.3672 10.527 28.5809 12.3133L32.1164 15.8489ZM35.1321 14.6081C36.3488 14.607 37.3069 15.0042 38.1509 15.8459L41.6816 12.3055C39.8913 10.5202 37.6584 9.60571 35.1273 9.60814L35.1321 14.6081ZM38.1509 15.8459C38.9938 16.6865 39.3919 17.6416 39.3919 18.8568H44.3919C44.3919 16.3242 43.4729 14.092 41.6816 12.3055L38.1509 15.8459ZM39.3919 18.8568C39.3919 20.0755 38.9937 21.0365 38.1517 21.8831L41.6969 25.4089C43.4784 23.6177 44.3919 21.3859 44.3919 18.8568H39.3919ZM38.1517 21.8831C37.3153 22.7241 36.3627 23.1213 35.1453 23.119L35.1357 28.1189C37.6733 28.1238 39.9099 27.2057 41.6969 25.4089L38.1517 21.8831Z" fill="white" mask="url(#path-1-inside-1_685_335)"/>
</svg>
