<svg width="50" height="45" viewBox="0 0 50 45" fill="none" xmlns="http://www.w3.org/2000/svg">
<path d="M8.57571 9.29035C8.57571 7.58454 9.25334 5.94859 10.4595 4.7424C11.6657 3.5362 13.3017 2.85857 15.0075 2.85857C16.7133 2.85857 18.3493 3.5362 19.5555 4.7424C20.7616 5.94859 21.4393 7.58454 21.4393 9.29035C21.4393 10.9962 20.7616 12.6321 19.5555 13.8383C18.3493 15.0445 16.7133 15.7221 15.0075 15.7221C13.3017 15.7221 11.6657 15.0445 10.4595 13.8383C9.25334 12.6321 8.57571 10.9962 8.57571 9.29035ZM15.0075 0C12.5435 0 10.1805 0.978802 8.43822 2.72108C6.69594 4.46336 5.71714 6.8264 5.71714 9.29035C5.71714 11.7543 6.69594 14.1173 8.43822 15.8596C10.1805 17.6019 12.5435 18.5807 15.0075 18.5807C17.4714 18.5807 19.8345 17.6019 21.5768 15.8596C23.319 14.1173 24.2978 11.7543 24.2978 9.29035C24.2978 6.8264 23.319 4.46336 21.5768 2.72108C19.8345 0.978802 17.4714 0 15.0075 0ZM24.2978 21.4393C25.7868 21.4387 27.2172 22.019 28.2849 23.0568C29.3526 24.0946 29.9733 25.508 30.015 26.9963L25.9673 31.0412C26.5971 29.9961 26.9967 28.8286 27.1393 27.6166C27.1488 27.508 27.1536 27.4289 27.1536 27.3794L27.1564 27.3308V27.1564C27.1564 26.3983 26.8552 25.6712 26.3192 25.1351C25.7831 24.599 25.056 24.2978 24.2978 24.2978H5.71714C4.959 24.2978 4.23191 24.599 3.69583 25.1351C3.15974 25.6712 2.85857 26.3983 2.85857 27.1564V27.3794L2.87858 27.6166C3.0337 28.9869 3.5225 30.2982 4.30215 31.4357C5.69427 33.4481 8.61287 35.7321 15.0075 35.7321C19.4669 35.7321 22.2368 34.6201 23.9748 33.2652C23.3774 34.1513 22.9372 35.1318 22.677 36.1752L22.374 37.3901C20.4245 38.1333 18.0033 38.5907 15.0075 38.5907C7.82391 38.5907 3.9534 35.9608 1.94954 33.0622C0.894442 31.525 0.236445 29.7503 0.0343027 27.8968C0.0179949 27.7304 0.00655583 27.5636 0 27.3965V27.1564C0 25.6401 0.60234 24.186 1.67451 23.1138C2.74668 22.0416 4.20086 21.4393 5.71714 21.4393H24.2978ZM44.3078 11.4343C44.3078 13.3296 43.5549 15.1474 42.2147 16.4876C40.8745 17.8278 39.0568 18.5807 37.1614 18.5807C35.2661 18.5807 33.4483 17.8278 32.1081 16.4876C30.7679 15.1474 30.015 13.3296 30.015 11.4343C30.015 9.53893 30.7679 7.72121 32.1081 6.38099C33.4483 5.04078 35.2661 4.28786 37.1614 4.28786C39.0568 4.28786 40.8745 5.04078 42.2147 6.38099C43.5549 7.72121 44.3078 9.53893 44.3078 11.4343ZM32.8736 11.4343C32.8736 12.5715 33.3253 13.6621 34.1294 14.4663C34.9336 15.2704 36.0242 15.7221 37.1614 15.7221C38.2986 15.7221 39.3893 15.2704 40.1934 14.4663C40.9975 13.6621 41.4493 12.5715 41.4493 11.4343C41.4493 10.2971 40.9975 9.20644 40.1934 8.40231C39.3893 7.59818 38.2986 7.14643 37.1614 7.14643C36.0242 7.14643 34.9336 7.59818 34.1294 8.40231C33.3253 9.20644 32.8736 10.2971 32.8736 11.4343ZM40.9061 20.1472L27.0992 33.9541C26.2949 34.7587 25.7239 35.7664 25.447 36.8698L24.375 41.152C24.2693 41.5779 24.2756 42.0239 24.3931 42.4466C24.5107 42.8694 24.7357 43.2546 25.0461 43.5647C25.3565 43.8748 25.7419 44.0994 26.1648 44.2166C26.5876 44.3338 27.0336 44.3396 27.4594 44.2335L31.7416 43.1644C32.845 42.8875 33.8527 42.3165 34.6573 41.5122L48.4642 27.7053C49.4537 26.7 50.0057 25.3443 50 23.9338C49.9942 22.5233 49.4312 21.1722 48.4336 20.1749C47.436 19.1777 46.0847 18.6152 44.6742 18.61C43.2636 18.6048 41.9082 19.1574 40.9033 20.1472" fill="white"/>
</svg>
