<svg width="50" height="50" viewBox="0 0 50 50" fill="none" xmlns="http://www.w3.org/2000/svg">
<path d="M7.02489 43.4163L7.02461 43.4162C3.50952 41.179 1.25 38.0312 1.25 34.4828V33.6207C1.25 32.3518 1.75408 31.1348 2.65134 30.2375C3.54861 29.3403 4.76556 28.8362 6.03448 28.8362H18.8478C18.6711 29.5409 18.5776 30.2777 18.5776 31.0345V44.8271C18.5776 44.8273 18.5776 44.8274 18.5776 44.8276C18.5773 45.5517 18.6644 46.2708 18.8352 46.9696C14.2567 46.691 10.1295 45.3934 7.02489 43.4163ZM37.4416 42.7409L48.75 36.4573V44.8276C48.75 45.8679 48.3367 46.8656 47.6012 47.6012C46.8656 48.3367 45.8679 48.75 44.8276 48.75H27.5862C26.5459 48.75 25.5482 48.3367 24.8126 47.6012C24.077 46.8656 23.6638 45.8679 23.6638 44.8276V36.4588L34.9723 42.741L34.9726 42.7412C35.3503 42.9508 35.775 43.0608 36.2069 43.0608C36.6388 43.0608 37.0635 42.9508 37.4411 42.7412L37.4416 42.7409ZM28.3398 19.7191C26.3109 21.7481 23.559 22.8879 20.6897 22.8879C17.8203 22.8879 15.0684 21.7481 13.0395 19.7191C11.0105 17.6902 9.87069 14.9383 9.87069 12.069C9.87069 9.1996 11.0105 6.44775 13.0395 4.4188C15.0684 2.38985 17.8203 1.25 20.6897 1.25C23.559 1.25 26.3109 2.38985 28.3398 4.4188C30.3688 6.44775 31.5086 9.1996 31.5086 12.069C31.5086 14.9383 30.3688 17.6902 28.3398 19.7191ZM24.8126 28.2609C25.5482 27.5253 26.5459 27.1121 27.5862 27.1121H44.8276C45.8679 27.1121 46.8656 27.5253 47.6012 28.2609C48.2457 28.9055 48.6428 29.7514 48.7312 30.6508L36.2069 37.608L23.6826 30.6508C23.771 29.7514 24.168 28.9055 24.8126 28.2609Z" stroke="white" stroke-width="2.5"/>
</svg>
