<svg width="50" height="50" viewBox="0 0 50 50" fill="none" xmlns="http://www.w3.org/2000/svg">
<path d="M41.0696 39.2033H41.0675H39.8772H39.8343L39.7916 39.2062L39.5488 39.2229L39.5062 39.2258L39.4639 39.2316C38.702 39.3365 38.0083 39.7266 37.5229 40.3232L38.4926 41.112L37.5229 40.3232C37.0376 40.9198 36.7968 41.6784 36.8492 42.4457C36.9016 43.2131 37.2434 43.9319 37.8054 44.4569C38.3673 44.982 39.1077 45.2741 39.8768 45.2744H39.8772H41.0675H41.1108L41.154 45.2714L41.3944 45.2547L41.4365 45.2518L41.4783 45.246C42.2399 45.1413 42.9334 44.7514 43.4187 44.1553C43.9041 43.5591 44.1451 42.801 44.0932 42.034C44.0413 41.267 43.7004 40.5482 43.1392 40.0228C42.5779 39.4974 41.8383 39.2045 41.0696 39.2033ZM5.35663 29.8068H27.3116V45.2121C24.917 45.9674 22.1586 46.3526 19.0387 46.3526C11.1617 46.3526 5.60076 43.8994 2.23477 39.1759C1.59587 38.2759 1.25 37.2004 1.25 36.1013L1.25 33.9116C1.25 33.9115 1.25 33.9114 1.25 33.9114C1.25 33.9113 1.25 33.9112 1.25 33.9111C1.25063 32.8224 1.68349 31.7786 2.45345 31.009L1.56976 30.1249L2.45345 31.009C3.22354 30.2392 4.2678 29.8068 5.35663 29.8068ZM19.0387 1.25C20.4377 1.25 21.8231 1.52556 23.1156 2.06096C24.4082 2.59635 25.5826 3.38109 26.5719 4.37038C27.5612 5.35966 28.3459 6.5341 28.8813 7.82666C29.4167 9.11922 29.6923 10.5046 29.6923 11.9036C29.6923 13.3027 29.4167 14.688 28.8813 15.9806C28.3459 17.2732 27.5612 18.4476 26.5719 19.4369C25.5826 20.4262 24.4082 21.2109 23.1156 21.7463C21.8231 22.2817 20.4377 22.5573 19.0387 22.5573C16.2131 22.5573 13.5034 21.4348 11.5054 19.4369C9.50747 17.4389 8.38504 14.7291 8.38504 11.9036C8.38504 9.07811 9.50747 6.36832 11.5054 4.37038C13.5034 2.37243 16.2131 1.25 19.0387 1.25ZM45.8337 20.2839C47.4432 20.2839 48.75 21.5907 48.75 23.2002V45.8171C48.75 46.5905 48.4428 47.3323 47.8959 47.8792C47.3489 48.4261 46.6072 48.7333 45.8337 48.7333H35.1086C34.3351 48.7333 33.5934 48.4261 33.0464 47.8792C32.4995 47.3323 32.1923 46.5905 32.1923 45.8171V23.2002C32.1923 21.5907 33.4991 20.2839 35.1086 20.2839H45.8337Z" stroke="white" stroke-width="2.5"/>
</svg>
