<svg width="213" height="106" viewBox="0 0 213 106" fill="none" xmlns="http://www.w3.org/2000/svg">
<rect x="75" width="138" height="73" rx="10" fill="#898989"/>
<path fill-rule="evenodd" clip-rule="evenodd" d="M59 77C56.2386 77 54 79.2386 54 82V87C54 89.7614 56.2386 92 59 92H121.926C122.957 92 123.805 91.2119 124.023 90.2047C125.534 83.2273 131.742 78 139.172 78C146.601 78 152.81 83.2273 154.321 90.2047C154.539 91.2119 155.387 92 156.417 92H187C189.761 92 192 89.7614 192 87V82C192 79.2386 189.761 77 187 77H59Z" fill="#D1D1D1"/>
<path d="M151.672 93.5C151.672 100.404 146.075 106 139.172 106C132.268 106 126.672 100.404 126.672 93.5C126.672 86.5964 132.268 81 139.172 81C146.075 81 151.672 86.5964 151.672 93.5Z" fill="#D1D1D1"/>
<path fill-rule="evenodd" clip-rule="evenodd" d="M35.6782 46.8607C32.4969 49.6637 29.3889 52.402 24.6724 55C22.2749 56.3206 20.3303 57.1203 18.3487 57.9351C16.5982 58.655 14.8187 59.3867 12.6724 60.5C11.6556 61.0274 10.7113 61.4005 9.82036 61.7525C7.92333 62.502 6.26859 63.1557 4.67244 65C2.97198 66.9648 2.48348 68.4816 1.69194 70.9394L1.67244 71C0.647767 74.1814 0.357831 76.1629 0.171932 79.5001C0.155534 79.7945 0.138105 80.0849 0.120876 80.372C-0.0387518 83.0317 -0.181194 85.4051 0.672323 88.0001C1.10982 89.3302 1.43668 89.6784 2.19975 90.4911C2.34117 90.6417 2.49757 90.8082 2.67244 91C4.4627 92.963 6.56591 92.9085 8.93438 92.8471C10.1163 92.8165 11.3643 92.7842 12.6724 93V93C12.6763 93.0006 12.6798 92.9977 12.68 92.9937C12.9469 84.6675 19.7807 77.9996 28.1719 77.9996C36.7323 77.9996 43.6719 84.9392 43.6719 93.4996V93.4996C43.6719 94.4447 44.3904 95.273 45.3355 95.2848C47.3321 95.3098 49.3517 95.3191 51.3337 95.3171C62.1191 95.3062 70.6725 86.4432 70.6725 75.6577V47.5794C70.6725 39.4196 64.0472 31.864 56.1719 34.0001C51.9928 35.1336 50.16 36.3099 47.0936 38.2779C46.5068 38.6545 45.8747 39.0601 45.1724 39.5C41.23 41.9693 38.4267 44.4391 35.6782 46.8607Z" fill="#D1D1D1"/>
<circle cx="28.1719" cy="93.5" r="12.5" fill="#D1D1D1"/>
<path d="M90.8203 29V18.8047H90.9766L93.0078 22.0664V29H90.8203ZM90.8203 16.7344V15.3281H92.6367L99.5117 26.3633V29H98.457L90.8203 16.7344ZM97.3242 21.0312V15.3281H99.5117V24.293H99.3555L97.3242 21.0312ZM101.094 25.1914V18.7656C101.094 18.0755 101.387 17.3724 101.973 16.6562C102.754 15.7188 103.743 15.2435 104.941 15.2305V17.3984C104.264 17.4115 103.757 17.776 103.418 18.4922C103.314 18.7266 103.262 18.9219 103.262 19.0781V25.1914C103.262 25.8945 103.626 26.4154 104.355 26.7539C104.577 26.8581 104.766 26.9102 104.922 26.9102V29.0977C104.18 29.0977 103.438 28.8307 102.695 28.2969C101.641 27.5156 101.107 26.4805 101.094 25.1914ZM105.996 29.0977V26.9102C106.335 26.9102 106.686 26.7539 107.051 26.4414C107.441 26.0898 107.643 25.6732 107.656 25.1914V19.0781C107.656 18.6875 107.487 18.3099 107.148 17.9453C106.823 17.5938 106.439 17.4115 105.996 17.3984V15.2305C107.311 15.2305 108.366 15.7969 109.16 16.9297C109.616 17.5807 109.844 18.1927 109.844 18.7656V25.1914C109.844 26.6367 109.199 27.7435 107.91 28.5117C107.233 28.9023 106.595 29.0977 105.996 29.0977ZM111.406 29V18.8047H111.562L113.594 22.0664V29H111.406ZM111.406 16.7344V15.3281H113.223L120.098 26.3633V29H119.043L111.406 16.7344ZM117.91 21.0312V15.3281H120.098V24.293H119.941L117.91 21.0312ZM121.367 25.9141L123.34 25.2109C123.418 26.0573 123.88 26.6432 124.727 26.9688C124.883 27.0208 124.961 27.0469 124.961 27.0469V29.0586C123.841 29.0586 122.891 28.5768 122.109 27.6133C121.628 27.0013 121.38 26.4349 121.367 25.9141ZM121.523 19.0391C121.523 17.6198 122.135 16.5521 123.359 15.8359C123.932 15.5104 124.466 15.3411 124.961 15.3281V17.3789C124.557 17.444 124.206 17.6784 123.906 18.082C123.711 18.3685 123.613 18.6745 123.613 19C123.613 19.6771 124.102 20.2174 125.078 20.6211C125.312 20.7122 125.677 20.8359 126.172 20.9922C126.797 21.1875 127.233 21.3438 127.48 21.4609C128.613 22.0208 129.349 22.6849 129.688 23.4531C129.883 23.9089 129.98 24.4102 129.98 24.957C129.98 26.1029 129.538 27.099 128.652 27.9453C127.858 28.6875 126.966 29.0586 125.977 29.0586V27.0469C126.471 27.0208 126.914 26.7865 127.305 26.3438C127.63 25.9531 127.793 25.5039 127.793 24.9961C127.793 24.2018 127.24 23.6029 126.133 23.1992C125.898 23.1081 125.534 22.9909 125.039 22.8477C124.492 22.6914 124.121 22.5677 123.926 22.4766C122.832 21.9948 122.129 21.3763 121.816 20.6211C121.621 20.1654 121.523 19.638 121.523 19.0391ZM125.977 17.3789V15.3281C127.096 15.3281 128.034 15.8099 128.789 16.7734C129.193 17.2943 129.408 17.7695 129.434 18.1992L127.422 18.8633C127.37 18.4727 127.22 18.1536 126.973 17.9062C126.738 17.6589 126.517 17.5091 126.309 17.457L125.977 17.3789ZM130.742 17.457V15.3281H139.199V17.457H136.074V29H133.887V17.457H130.742ZM140.137 29L142.715 17.5352H143.008L143.906 21.6758L142.285 29H140.137ZM143.75 27.0469L144.199 24.918H145.664L143.555 15.3281H145.703L148.848 29H146.68L146.25 27.0469H143.75ZM150.098 29V18.8047H150.254L152.285 22.0664V29H150.098ZM150.098 16.7344V15.3281H151.914L158.789 26.3633V29H157.734L150.098 16.7344ZM156.602 21.0312V15.3281H158.789V24.293H158.633L156.602 21.0312ZM160.41 29V15.3281H162.598V29H160.41ZM163.613 29V26.832C165.111 26.832 165.872 26.2852 165.898 25.1914C165.898 25.1784 165.898 25.1654 165.898 25.1523V19.1758C165.898 18.3945 165.462 17.8802 164.59 17.6328C164.29 17.5417 163.965 17.4961 163.613 17.4961V15.3281C165.28 15.3281 166.523 15.875 167.344 16.9688C167.826 17.6198 168.066 18.3555 168.066 19.1758V25.1523C168.066 26.9622 167.214 28.1471 165.508 28.707C164.922 28.9023 164.29 29 163.613 29ZM169.434 29L172.012 17.5352H172.305L173.203 21.6758L171.582 29H169.434ZM173.047 27.0469L173.496 24.918H174.961L172.852 15.3281H175L178.145 29H175.977L175.547 27.0469H173.047ZM179.395 29V15.3281H181.582V29H179.395ZM182.578 23.2383V21.2852H183.672C184.805 21.2852 185.43 20.7448 185.547 19.6641C185.56 19.5469 185.566 19.4362 185.566 19.332C185.566 18.2383 185.072 17.5938 184.082 17.3984C183.9 17.3724 183.711 17.3594 183.516 17.3594H182.578V15.3281H183.77C185.501 15.3672 186.667 16.0117 187.266 17.2617C187.513 17.7826 187.637 18.3815 187.637 19.0586C187.624 20.5039 187.181 21.5521 186.309 22.2031C186.986 22.5938 187.415 23.2904 187.598 24.293C187.624 24.4622 187.643 24.6185 187.656 24.7617L187.988 29H185.957L185.664 25.5234C185.56 24.4297 185.267 23.7396 184.785 23.4531C184.499 23.3099 184.141 23.2383 183.711 23.2383H182.578ZM189.258 29V15.3281H191.445V29H189.258ZM192.461 29V26.832C193.958 26.832 194.72 26.2852 194.746 25.1914C194.746 25.1784 194.746 25.1654 194.746 25.1523V19.1758C194.746 18.3945 194.31 17.8802 193.438 17.6328C193.138 17.5417 192.812 17.4961 192.461 17.4961V15.3281C194.128 15.3281 195.371 15.875 196.191 16.9688C196.673 17.6198 196.914 18.3555 196.914 19.1758V25.1523C196.914 26.9622 196.061 28.1471 194.355 28.707C193.77 28.9023 193.138 29 192.461 29Z" fill="white"/>
<path d="M130.779 56V42.3281H132.947V56H130.779ZM133.963 56V54.0859H134.568C135.102 54.0859 135.564 53.9753 135.955 53.7539C136.632 53.3763 136.971 52.7839 136.971 51.9766C136.971 51.7422 136.932 51.5143 136.854 51.293C136.58 50.4987 135.955 50.1016 134.979 50.1016H133.963V48.207H134.979C135.304 48.207 135.604 48.1549 135.877 48.0508C136.593 47.7773 136.951 47.2044 136.951 46.332C136.951 46.0195 136.886 45.7135 136.756 45.4141C136.378 44.6328 135.714 44.2422 134.764 44.2422H133.963V42.3281H135.037C136.17 42.3281 137.101 42.6276 137.83 43.2266C138.689 43.9688 139.119 44.9583 139.119 46.1953C139.119 46.3776 139.106 46.5599 139.08 46.7422C138.95 47.8099 138.52 48.6107 137.791 49.1445C138.689 49.8346 139.145 50.8242 139.158 52.1133C139.158 52.9076 138.956 53.6237 138.553 54.2617C137.824 55.4206 136.658 56 135.057 56H133.963ZM140.564 52.1914V45.7656C140.564 45.0755 140.857 44.3724 141.443 43.6562C142.225 42.7188 143.214 42.2435 144.412 42.2305V44.3984C143.735 44.4115 143.227 44.776 142.889 45.4922C142.785 45.7266 142.732 45.9219 142.732 46.0781V52.1914C142.732 52.8945 143.097 53.4154 143.826 53.7539C144.048 53.8581 144.236 53.9102 144.393 53.9102V56.0977C143.65 56.0977 142.908 55.8307 142.166 55.2969C141.111 54.5156 140.577 53.4805 140.564 52.1914ZM145.467 56.0977V53.9102C145.805 53.9102 146.157 53.7539 146.521 53.4414C146.912 53.0898 147.114 52.6732 147.127 52.1914V46.0781C147.127 45.6875 146.958 45.3099 146.619 44.9453C146.294 44.5938 145.91 44.4115 145.467 44.3984V42.2305C146.782 42.2305 147.837 42.7969 148.631 43.9297C149.087 44.5807 149.314 45.1927 149.314 45.7656V52.1914C149.314 53.6367 148.67 54.7435 147.381 55.5117C146.704 55.9023 146.066 56.0977 145.467 56.0977ZM150.428 56L153.377 48.9492L150.662 42.3281H152.791L154.451 46.1367L156.131 42.3281H158.24L155.545 48.9492L158.475 56H156.248L154.451 51.8398L152.674 56H150.428Z" fill="white"/>
</svg>
