<svg width="213" height="106" viewBox="0 0 213 106" fill="none" xmlns="http://www.w3.org/2000/svg">
<rect x="75" width="138" height="73" rx="10" fill="#898989"/>
<path fill-rule="evenodd" clip-rule="evenodd" d="M59 77C56.2386 77 54 79.2386 54 82V87C54 89.7614 56.2386 92 59 92H121.926C122.957 92 123.805 91.2119 124.023 90.2047C125.534 83.2273 131.742 78 139.172 78C146.601 78 152.81 83.2273 154.321 90.2047C154.539 91.2119 155.387 92 156.417 92H187C189.761 92 192 89.7614 192 87V82C192 79.2386 189.761 77 187 77H59Z" fill="#D1D1D1"/>
<path d="M151.672 93.5C151.672 100.404 146.075 106 139.172 106C132.268 106 126.672 100.404 126.672 93.5C126.672 86.5964 132.268 81 139.172 81C146.075 81 151.672 86.5964 151.672 93.5Z" fill="#D1D1D1"/>
<path d="M63.5319 8.31596C66.6783 6.22523 70.6709 8.56891 70.6709 12.3466V23.1078C70.6709 25.8268 68.4977 28.0503 65.7869 28.2606C63.0651 28.4717 59.721 28.846 57.1709 29.5C56.8126 29.5919 56.4439 29.696 56.0677 29.8103C51.6775 31.1439 47.2936 27.1331 49.5026 23.1115C51.0341 20.3235 52.7983 17.567 54.6709 15.5C56.9827 12.9484 60.4291 10.3777 63.5319 8.31596Z" fill="#898989"/>
<path fill-rule="evenodd" clip-rule="evenodd" d="M35.6782 46.8607C32.4969 49.6637 29.3889 52.402 24.6724 55C22.2749 56.3206 20.3303 57.1203 18.3487 57.9351C16.5982 58.655 14.8187 59.3867 12.6724 60.5C11.6556 61.0274 10.7113 61.4005 9.82036 61.7525C7.92333 62.502 6.26859 63.1557 4.67244 65C2.97198 66.9648 2.48348 68.4816 1.69194 70.9394L1.67244 71C0.647767 74.1814 0.357831 76.1629 0.171932 79.5001C0.155534 79.7945 0.138105 80.0849 0.120876 80.372C-0.0387518 83.0317 -0.181194 85.4051 0.672323 88.0001C1.10982 89.3302 1.43668 89.6784 2.19975 90.4911C2.34117 90.6417 2.49757 90.8082 2.67244 91C4.4627 92.963 6.56591 92.9085 8.93438 92.8471C10.1163 92.8165 11.3643 92.7842 12.6724 93V93C12.6763 93.0006 12.6798 92.9977 12.68 92.9937C12.9469 84.6675 19.7807 77.9996 28.1719 77.9996C36.7323 77.9996 43.6719 84.9392 43.6719 93.4996V93.4996C43.6719 94.4447 44.3904 95.273 45.3355 95.2848C47.3321 95.3098 49.3517 95.3191 51.3337 95.3171C62.1191 95.3062 70.6725 86.4432 70.6725 75.6577V47.5794C70.6725 39.4196 64.0472 31.864 56.1719 34.0001C51.9928 35.1336 50.16 36.3099 47.0936 38.2779C46.5068 38.6545 45.8747 39.0601 45.1724 39.5C41.23 41.9693 38.4267 44.4391 35.6782 46.8607Z" fill="#D1D1D1"/>
<circle cx="28.1719" cy="93.5" r="12.5" fill="#D1D1D1"/>
<path d="M130.645 56V42.3281H132.812V56H130.645ZM133.828 56V54.0859H134.434C134.967 54.0859 135.43 53.9753 135.82 53.7539C136.497 53.3763 136.836 52.7839 136.836 51.9766C136.836 51.7422 136.797 51.5143 136.719 51.293C136.445 50.4987 135.82 50.1016 134.844 50.1016H133.828V48.207H134.844C135.169 48.207 135.469 48.1549 135.742 48.0508C136.458 47.7773 136.816 47.2044 136.816 46.332C136.816 46.0195 136.751 45.7135 136.621 45.4141C136.243 44.6328 135.579 44.2422 134.629 44.2422H133.828V42.3281H134.902C136.035 42.3281 136.966 42.6276 137.695 43.2266C138.555 43.9688 138.984 44.9583 138.984 46.1953C138.984 46.3776 138.971 46.5599 138.945 46.7422C138.815 47.8099 138.385 48.6107 137.656 49.1445C138.555 49.8346 139.01 50.8242 139.023 52.1133C139.023 52.9076 138.822 53.6237 138.418 54.2617C137.689 55.4206 136.523 56 134.922 56H133.828ZM140.43 52.1914V45.7656C140.43 45.0755 140.723 44.3724 141.309 43.6562C142.09 42.7188 143.079 42.2435 144.277 42.2305V44.3984C143.6 44.4115 143.092 44.776 142.754 45.4922C142.65 45.7266 142.598 45.9219 142.598 46.0781V52.1914C142.598 52.8945 142.962 53.4154 143.691 53.7539C143.913 53.8581 144.102 53.9102 144.258 53.9102V56.0977C143.516 56.0977 142.773 55.8307 142.031 55.2969C140.977 54.5156 140.443 53.4805 140.43 52.1914ZM145.332 56.0977V53.9102C145.671 53.9102 146.022 53.7539 146.387 53.4414C146.777 53.0898 146.979 52.6732 146.992 52.1914V46.0781C146.992 45.6875 146.823 45.3099 146.484 44.9453C146.159 44.5938 145.775 44.4115 145.332 44.3984V42.2305C146.647 42.2305 147.702 42.7969 148.496 43.9297C148.952 44.5807 149.18 45.1927 149.18 45.7656V52.1914C149.18 53.6367 148.535 54.7435 147.246 55.5117C146.569 55.9023 145.931 56.0977 145.332 56.0977ZM150.293 56L153.242 48.9492L150.527 42.3281H152.656L154.316 46.1367L155.996 42.3281H158.105L155.41 48.9492L158.34 56H156.113L154.316 51.8398L152.539 56H150.293Z" fill="white"/>
<path d="M106.57 25.9141L108.543 25.2109C108.621 26.0573 109.083 26.6432 109.93 26.9688C110.086 27.0208 110.164 27.0469 110.164 27.0469V29.0586C109.044 29.0586 108.094 28.5768 107.312 27.6133C106.831 27.0013 106.583 26.4349 106.57 25.9141ZM106.727 19.0391C106.727 17.6198 107.339 16.5521 108.562 15.8359C109.135 15.5104 109.669 15.3411 110.164 15.3281V17.3789C109.76 17.444 109.409 17.6784 109.109 18.082C108.914 18.3685 108.816 18.6745 108.816 19C108.816 19.6771 109.305 20.2174 110.281 20.6211C110.516 20.7122 110.88 20.8359 111.375 20.9922C112 21.1875 112.436 21.3438 112.684 21.4609C113.816 22.0208 114.552 22.6849 114.891 23.4531C115.086 23.9089 115.184 24.4102 115.184 24.957C115.184 26.1029 114.741 27.099 113.855 27.9453C113.061 28.6875 112.169 29.0586 111.18 29.0586V27.0469C111.674 27.0208 112.117 26.7865 112.508 26.3438C112.833 25.9531 112.996 25.5039 112.996 24.9961C112.996 24.2018 112.443 23.6029 111.336 23.1992C111.102 23.1081 110.737 22.9909 110.242 22.8477C109.695 22.6914 109.324 22.5677 109.129 22.4766C108.035 21.9948 107.332 21.3763 107.02 20.6211C106.824 20.1654 106.727 19.638 106.727 19.0391ZM111.18 17.3789V15.3281C112.299 15.3281 113.237 15.8099 113.992 16.7734C114.396 17.2943 114.611 17.7695 114.637 18.1992L112.625 18.8633C112.573 18.4727 112.423 18.1536 112.176 17.9062C111.941 17.6589 111.72 17.5091 111.512 17.457L111.18 17.3789ZM115.945 17.457V15.3281H124.402V17.457H121.277V29H119.09V17.457H115.945ZM125.34 29L127.918 17.5352H128.211L129.109 21.6758L127.488 29H125.34ZM128.953 27.0469L129.402 24.918H130.867L128.758 15.3281H130.906L134.051 29H131.883L131.453 27.0469H128.953ZM135.301 29V18.8047H135.457L137.488 22.0664V29H135.301ZM135.301 16.7344V15.3281H137.117L143.992 26.3633V29H142.938L135.301 16.7344ZM141.805 21.0312V15.3281H143.992V24.293H143.836L141.805 21.0312ZM145.613 29V15.3281H147.801V29H145.613ZM148.816 29V26.832C150.314 26.832 151.076 26.2852 151.102 25.1914C151.102 25.1784 151.102 25.1654 151.102 25.1523V19.1758C151.102 18.3945 150.665 17.8802 149.793 17.6328C149.493 17.5417 149.168 17.4961 148.816 17.4961V15.3281C150.483 15.3281 151.727 15.875 152.547 16.9688C153.029 17.6198 153.27 18.3555 153.27 19.1758V25.1523C153.27 26.9622 152.417 28.1471 150.711 28.707C150.125 28.9023 149.493 29 148.816 29ZM154.637 29L157.215 17.5352H157.508L158.406 21.6758L156.785 29H154.637ZM158.25 27.0469L158.699 24.918H160.164L158.055 15.3281H160.203L163.348 29H161.18L160.75 27.0469H158.25ZM164.598 29V15.3281H166.785V29H164.598ZM167.781 23.2383V21.2852H168.875C170.008 21.2852 170.633 20.7448 170.75 19.6641C170.763 19.5469 170.77 19.4362 170.77 19.332C170.77 18.2383 170.275 17.5938 169.285 17.3984C169.103 17.3724 168.914 17.3594 168.719 17.3594H167.781V15.3281H168.973C170.704 15.3672 171.87 16.0117 172.469 17.2617C172.716 17.7826 172.84 18.3815 172.84 19.0586C172.827 20.5039 172.384 21.5521 171.512 22.2031C172.189 22.5938 172.618 23.2904 172.801 24.293C172.827 24.4622 172.846 24.6185 172.859 24.7617L173.191 29H171.16L170.867 25.5234C170.763 24.4297 170.47 23.7396 169.988 23.4531C169.702 23.3099 169.344 23.2383 168.914 23.2383H167.781ZM174.461 29V15.3281H176.648V29H174.461ZM177.664 29V26.832C179.161 26.832 179.923 26.2852 179.949 25.1914C179.949 25.1784 179.949 25.1654 179.949 25.1523V19.1758C179.949 18.3945 179.513 17.8802 178.641 17.6328C178.341 17.5417 178.016 17.4961 177.664 17.4961V15.3281C179.331 15.3281 180.574 15.875 181.395 16.9688C181.876 17.6198 182.117 18.3555 182.117 19.1758V25.1523C182.117 26.9622 181.264 28.1471 179.559 28.707C178.973 28.9023 178.341 29 177.664 29Z" fill="white"/>
</svg>
