<svg width="213" height="106" viewBox="0 0 213 106" fill="none" xmlns="http://www.w3.org/2000/svg">
<rect x="75" width="138" height="73" rx="10" fill="#898989"/>
<path fill-rule="evenodd" clip-rule="evenodd" d="M59 77C56.2386 77 54 79.2386 54 82V87C54 89.7614 56.2386 92 59 92H121.926C122.957 92 123.805 91.2119 124.023 90.2047C125.534 83.2273 131.742 78 139.172 78C146.601 78 152.81 83.2273 154.321 90.2047C154.539 91.2119 155.387 92 156.417 92H187C189.761 92 192 89.7614 192 87V82C192 79.2386 189.761 77 187 77H59Z" fill="#D1D1D1"/>
<path d="M151.672 93.5C151.672 100.404 146.075 106 139.172 106C132.268 106 126.672 100.404 126.672 93.5C126.672 86.5964 132.268 81 139.172 81C146.075 81 151.672 86.5964 151.672 93.5Z" fill="#D1D1D1"/>
<rect x="52" y="6" width="31" height="24" rx="5" fill="#898989"/>
<path fill-rule="evenodd" clip-rule="evenodd" d="M35.6782 46.8607C32.4969 49.6637 29.3889 52.402 24.6724 55C22.2749 56.3206 20.3303 57.1203 18.3487 57.9351C16.5982 58.655 14.8187 59.3867 12.6724 60.5C11.6556 61.0274 10.7113 61.4005 9.82036 61.7525C7.92333 62.502 6.26859 63.1557 4.67244 65C2.97198 66.9648 2.48348 68.4816 1.69194 70.9394L1.67244 71C0.647767 74.1814 0.357831 76.1629 0.171932 79.5001C0.155534 79.7945 0.138105 80.0849 0.120876 80.372C-0.0387518 83.0317 -0.181194 85.4051 0.672323 88.0001C1.10982 89.3302 1.43668 89.6784 2.19975 90.4911C2.34117 90.6417 2.49757 90.8082 2.67244 91C4.4627 92.963 6.56591 92.9085 8.93438 92.8471C10.1163 92.8165 11.3643 92.7842 12.6724 93V93C12.6763 93.0006 12.6798 92.9977 12.68 92.9937C12.9469 84.6675 19.7807 77.9996 28.1719 77.9996C36.7323 77.9996 43.6719 84.9392 43.6719 93.4996V93.4996C43.6719 94.4447 44.3904 95.273 45.3355 95.2848C47.3321 95.3098 49.3517 95.3191 51.3337 95.3171C62.1191 95.3062 70.6725 86.4432 70.6725 75.6577V47.5794C70.6725 39.4196 64.0472 31.864 56.1719 34.0001C51.9928 35.1336 50.16 36.3099 47.0936 38.2779C46.5068 38.6545 45.8747 39.0601 45.1724 39.5C41.23 41.9693 38.4267 44.4391 35.6782 46.8607Z" fill="#D1D1D1"/>
<circle cx="28.1719" cy="93.5" r="12.5" fill="#D1D1D1"/>
<path d="M118.312 17.457V15.3281H126.77V17.457H123.645V29H121.457V17.457H118.312ZM127.902 29V15.3281H135.012V17.4766H130.09V21.1094H133.176V23.2969H130.09V26.832H135.012V29H127.902ZM136.594 29V15.3281H138.781V29H136.594ZM139.777 23.2383V21.2852H140.871C142.004 21.2852 142.629 20.7448 142.746 19.6641C142.759 19.5469 142.766 19.4362 142.766 19.332C142.766 18.2383 142.271 17.5938 141.281 17.3984C141.099 17.3724 140.91 17.3594 140.715 17.3594H139.777V15.3281H140.969C142.701 15.3672 143.866 16.0117 144.465 17.2617C144.712 17.7826 144.836 18.3815 144.836 19.0586C144.823 20.5039 144.38 21.5521 143.508 22.2031C144.185 22.5938 144.615 23.2904 144.797 24.293C144.823 24.4622 144.842 24.6185 144.855 24.7617L145.188 29H143.156L142.863 25.5234C142.759 24.4297 142.466 23.7396 141.984 23.4531C141.698 23.3099 141.34 23.2383 140.91 23.2383H139.777ZM146.477 29V19.7422H146.652L148.664 24.5664V29H146.477ZM146.477 16.7344V15.3281H148.215L152.355 25.3867L155.051 19.293H155.246V24.2539L153.137 29H151.574L146.477 16.7344ZM156.242 29V15.3281H158.43V29H156.242ZM160.012 25.1914V18.7656C160.012 18.0755 160.305 17.3724 160.891 16.6562C161.672 15.7188 162.661 15.2435 163.859 15.2305V17.3984C163.182 17.4115 162.674 17.776 162.336 18.4922C162.232 18.7266 162.18 18.9219 162.18 19.0781V25.1914C162.18 25.8945 162.544 26.4154 163.273 26.7539C163.495 26.8581 163.684 26.9102 163.84 26.9102V29.0977C163.098 29.0977 162.355 28.8307 161.613 28.2969C160.559 27.5156 160.025 26.4805 160.012 25.1914ZM164.914 29.0977V26.9102C165.253 26.9102 165.604 26.7539 165.969 26.4414C166.359 26.0898 166.561 25.6732 166.574 25.1914V19.0781C166.574 18.6875 166.405 18.3099 166.066 17.9453C165.741 17.5938 165.357 17.4115 164.914 17.3984V15.2305C166.229 15.2305 167.284 15.7969 168.078 16.9297C168.534 17.5807 168.762 18.1927 168.762 18.7656V25.1914C168.762 26.6367 168.117 27.7435 166.828 28.5117C166.151 28.9023 165.513 29.0977 164.914 29.0977Z" fill="white"/>
<path d="M130.779 56V42.3281H132.947V56H130.779ZM133.963 56V54.0859H134.568C135.102 54.0859 135.564 53.9753 135.955 53.7539C136.632 53.3763 136.971 52.7839 136.971 51.9766C136.971 51.7422 136.932 51.5143 136.854 51.293C136.58 50.4987 135.955 50.1016 134.979 50.1016H133.963V48.207H134.979C135.304 48.207 135.604 48.1549 135.877 48.0508C136.593 47.7773 136.951 47.2044 136.951 46.332C136.951 46.0195 136.886 45.7135 136.756 45.4141C136.378 44.6328 135.714 44.2422 134.764 44.2422H133.963V42.3281H135.037C136.17 42.3281 137.101 42.6276 137.83 43.2266C138.689 43.9688 139.119 44.9583 139.119 46.1953C139.119 46.3776 139.106 46.5599 139.08 46.7422C138.95 47.8099 138.52 48.6107 137.791 49.1445C138.689 49.8346 139.145 50.8242 139.158 52.1133C139.158 52.9076 138.956 53.6237 138.553 54.2617C137.824 55.4206 136.658 56 135.057 56H133.963ZM140.564 52.1914V45.7656C140.564 45.0755 140.857 44.3724 141.443 43.6562C142.225 42.7188 143.214 42.2435 144.412 42.2305V44.3984C143.735 44.4115 143.227 44.776 142.889 45.4922C142.785 45.7266 142.732 45.9219 142.732 46.0781V52.1914C142.732 52.8945 143.097 53.4154 143.826 53.7539C144.048 53.8581 144.236 53.9102 144.393 53.9102V56.0977C143.65 56.0977 142.908 55.8307 142.166 55.2969C141.111 54.5156 140.577 53.4805 140.564 52.1914ZM145.467 56.0977V53.9102C145.805 53.9102 146.157 53.7539 146.521 53.4414C146.912 53.0898 147.114 52.6732 147.127 52.1914V46.0781C147.127 45.6875 146.958 45.3099 146.619 44.9453C146.294 44.5938 145.91 44.4115 145.467 44.3984V42.2305C146.782 42.2305 147.837 42.7969 148.631 43.9297C149.087 44.5807 149.314 45.1927 149.314 45.7656V52.1914C149.314 53.6367 148.67 54.7435 147.381 55.5117C146.704 55.9023 146.066 56.0977 145.467 56.0977ZM150.428 56L153.377 48.9492L150.662 42.3281H152.791L154.451 46.1367L156.131 42.3281H158.24L155.545 48.9492L158.475 56H156.248L154.451 51.8398L152.674 56H150.428Z" fill="white"/>
</svg>
